<?xml version="1.0" standalone="no"?>
<!DOCTYPE svg PUBLIC "-//W3C//DTD SVG 20010904//EN"
 "http://www.w3.org/TR/2001/REC-SVG-20010904/DTD/svg10.dtd">
<svg version="1.0" xmlns="http://www.w3.org/2000/svg"
 width="1024.000000pt" height="1024.000000pt" viewBox="0 0 1024.000000 1024.000000"
 preserveAspectRatio="xMidYMid meet">

<g transform="translate(0.000000,1024.000000) scale(0.100000,-0.100000)"
fill="#000000" stroke="none">
<path d="M4438 9685 c-4 -4 -18 -9 -30 -10 -88 -10 -344 -114 -478 -195 -279
-167 -326 -182 -640 -206 -47 -3 -87 -7 -88 -9 -10 -9 121 -17 201 -12 167 11
261 35 372 94 17 9 45 23 63 32 17 8 32 19 32 23 0 4 6 8 13 8 11 0 85 46 114
70 15 12 33 13 33 1 0 -5 -7 -14 -15 -21 -8 -7 -15 -9 -15 -4 0 5 -12 -3 -28
-18 -15 -14 -46 -44 -69 -65 -24 -22 -40 -43 -36 -46 3 -4 0 -7 -9 -7 -19 0
-60 -44 -51 -55 5 -4 1 -6 -7 -3 -9 3 -31 -10 -55 -34 -51 -50 -132 -88 -193
-90 -26 -1 -101 2 -167 7 -196 14 -387 2 -495 -32 -66 -20 -58 -18 -95 -28
-16 -4 -51 -19 -77 -32 -27 -13 -48 -20 -48 -16 0 5 -4 3 -8 -3 -4 -6 -32 -24
-62 -39 -30 -16 -62 -36 -72 -45 -9 -8 -39 -35 -68 -60 -66 -58 -121 -145
-155 -248 -43 -130 -38 -226 23 -422 44 -142 45 -186 8 -263 -15 -31 -62 -66
-96 -73 -3 0 -12 -3 -20 -7 -8 -3 -32 -11 -52 -17 -21 -6 -38 -16 -38 -21 0
-6 -9 -8 -19 -4 -11 3 -22 2 -25 -3 -10 -16 -137 -12 -261 9 -66 10 -157 19
-201 19 -102 0 -243 -24 -294 -50 -22 -11 -46 -20 -55 -20 -8 0 -15 -4 -15 -9
0 -5 -12 -14 -27 -20 -52 -22 -203 -183 -203 -217 0 -8 -3 -14 -8 -14 -8 0
-49 -85 -64 -134 -5 -17 -12 -40 -15 -51 -3 -11 -7 -63 -8 -115 -2 -116 28
-232 73 -278 6 -7 12 -17 12 -22 0 -9 56 -75 90 -107 51 -48 106 -93 114 -93
5 0 23 -10 40 -23 17 -12 43 -28 58 -34 45 -20 67 -136 28 -148 -11 -3 -20
-10 -20 -15 0 -5 -7 -7 -15 -4 -18 7 -125 -25 -143 -43 -7 -7 -20 -13 -28 -13
-8 0 -17 -7 -21 -16 -3 -9 -16 -27 -28 -40 -28 -30 -50 -121 -42 -177 9 -61
45 -133 74 -146 33 -15 35 -14 23 9 -14 26 -33 119 -30 150 3 49 5 55 25 88
18 31 84 64 148 76 12 3 22 5 22 6 0 1 13 4 29 6 16 3 38 10 49 15 15 9 22 6
35 -13 9 -12 16 -25 16 -28 -1 -3 9 -21 21 -40 32 -52 41 -78 49 -148 4 -37
-18 -166 -32 -183 -6 -8 -24 -29 -39 -48 l-29 -33 -94 0 c-101 0 -104 -9 -10
-29 50 -10 53 -12 35 -25 -20 -15 -108 -44 -132 -44 -7 0 -13 -4 -13 -9 0 -4
-17 -11 -37 -14 -21 -3 -69 -12 -108 -21 -84 -18 -145 -28 -165 -28 -8 0 -49
-7 -90 -15 -142 -28 -212 -78 -261 -189 -17 -38 -22 -68 -22 -135 0 -47 3 -94
8 -105 5 -10 9 -21 10 -24 21 -60 114 -158 136 -144 8 5 9 3 5 -5 -5 -8 0 -14
13 -18 12 -3 21 -9 21 -14 0 -5 15 -26 32 -46 18 -19 32 -39 31 -44 -2 -5 2
-8 8 -6 6 1 16 -7 22 -18 7 -11 15 -22 18 -25 23 -19 79 -180 79 -226 0 -18
-5 -36 -10 -39 -6 -4 -8 -11 -5 -16 4 -5 -1 -9 -9 -9 -9 0 -16 -5 -16 -10 0
-14 -69 -41 -110 -42 -8 0 -21 -5 -28 -11 -7 -5 -15 -7 -19 -4 -3 4 -32 -7
-64 -24 -46 -25 -62 -40 -79 -76 -11 -24 -17 -49 -14 -55 4 -7 3 -8 -4 -4 -10
6 -18 -25 -13 -56 0 -4 1 -22 3 -40 3 -50 33 -102 80 -141 53 -42 80 -57 107
-57 12 0 21 -5 21 -12 0 -6 23 -33 50 -60 28 -26 50 -50 50 -53 0 -3 -18 -25
-40 -49 -22 -23 -46 -55 -53 -69 l-14 -27 -44 38 c-72 64 -129 83 -180 61 -41
-16 -61 -88 -45 -159 8 -35 49 -120 58 -120 5 0 8 -8 8 -18 0 -10 9 -28 20
-40 12 -12 18 -22 14 -22 -4 0 0 -8 9 -18 8 -9 16 -21 16 -27 1 -5 14 -30 29
-55 16 -25 35 -60 42 -78 7 -18 25 -50 39 -70 15 -20 33 -52 40 -69 7 -18 18
-33 24 -33 6 0 8 -3 4 -6 -7 -7 151 -315 167 -326 6 -4 7 -8 3 -8 -5 0 12 -37
36 -82 25 -46 68 -129 97 -185 29 -57 57 -103 62 -103 24 0 -8 85 -93 255 -49
99 -89 184 -89 189 1 5 -2 12 -7 15 -16 10 -72 118 -66 125 4 3 1 6 -5 6 -7 0
-12 4 -12 8 0 4 -31 66 -70 136 -39 71 -70 132 -70 137 0 4 -6 14 -13 21 -7 7
-44 69 -82 138 -38 69 -72 127 -75 130 -8 6 -55 102 -55 112 0 3 -3 10 -7 14
-5 4 -8 24 -8 44 0 70 67 94 133 49 70 -48 148 -156 327 -448 59 -97 156 -248
215 -336 59 -88 110 -167 113 -175 9 -24 94 -155 103 -158 5 -2 9 -10 9 -18 0
-18 10 -17 34 1 19 14 19 17 -14 112 -18 54 -48 132 -67 174 -45 105 -113 296
-113 320 0 10 -4 19 -10 19 -5 0 -10 9 -10 20 0 11 -4 20 -10 20 -5 0 -9 3 -8
8 2 4 -9 36 -24 72 -15 36 -45 110 -66 165 -22 55 -51 125 -65 155 -68 149
-117 260 -117 266 0 3 -7 20 -15 37 -24 51 -55 148 -55 171 0 41 27 65 68 62
36 -2 92 -24 92 -35 0 -3 12 -19 26 -36 48 -55 97 -138 176 -298 43 -87 78
-159 78 -161 0 -2 29 -65 65 -140 36 -75 65 -138 65 -141 0 -2 20 -46 44 -97
43 -91 112 -242 192 -422 21 -48 48 -98 60 -111 11 -12 18 -27 16 -33 -4 -14
8 -15 28 -2 19 12 17 207 -5 390 -8 69 -16 143 -19 165 -7 66 -63 370 -96 525
-38 180 -52 284 -44 328 7 37 52 67 85 57 43 -14 100 -116 150 -270 16 -49 36
-110 44 -135 30 -92 138 -552 196 -837 46 -230 119 -378 263 -534 25 -28 46
-54 46 -59 0 -5 17 -22 38 -37 61 -46 63 -49 46 -63 -25 -22 -8 -22 33 -1 47
24 60 57 68 181 20 299 52 506 94 605 5 11 16 38 25 60 32 76 75 108 128 98
61 -12 60 -3 63 -455 1 -325 5 -435 18 -515 41 -254 19 -609 -49 -813 -23 -68
-96 -222 -153 -324 -64 -112 -80 -205 -57 -315 9 -41 15 -76 13 -77 -12 -10
-122 -60 -175 -79 -174 -62 -359 -95 -548 -98 l-129 -2 -26 105 c-34 137 -45
156 -126 226 -266 230 -415 449 -612 899 -34 77 -66 149 -71 160 -5 11 -23 54
-39 96 -35 90 -95 194 -176 304 -79 108 -182 226 -343 394 -43 46 -79 93 -89
120 -17 43 -17 44 7 63 19 15 33 18 63 14 71 -12 152 -75 345 -271 258 -262
323 -315 383 -315 12 0 19 7 19 20 0 18 -16 25 -42 21 -5 0 -8 2 -8 7 0 4 -13
13 -29 20 -27 12 -162 143 -287 281 -81 88 -216 205 -279 241 -60 34 -118 39
-170 14 -28 -13 -34 -22 -37 -55 -4 -46 11 -88 44 -123 13 -14 39 -46 58 -72
19 -26 43 -54 53 -63 50 -43 67 -61 67 -66 0 -3 13 -20 29 -38 51 -56 168
-203 180 -226 7 -12 16 -19 20 -17 4 3 8 0 8 -7 0 -7 23 -47 52 -89 45 -66 77
-132 98 -200 3 -10 10 -18 15 -18 5 0 6 -4 3 -10 -3 -5 0 -22 8 -37 25 -50 60
-128 63 -141 1 -7 11 -30 22 -51 12 -22 18 -42 15 -45 -4 -3 -1 -6 5 -6 7 0
12 -8 12 -17 0 -24 139 -303 151 -303 6 0 8 -4 5 -9 -3 -5 1 -14 9 -21 8 -7
15 -17 15 -23 0 -10 26 -52 119 -191 50 -75 239 -275 262 -277 8 -1 17 -1 22
0 4 0 6 -5 5 -11 -2 -7 3 -12 10 -10 6 1 12 -4 12 -11 0 -8 11 -20 24 -27 24
-13 58 -75 62 -115 2 -28 14 -97 20 -115 2 -9 -10 -31 -27 -50 -66 -72 -82
-166 -46 -266 57 -156 60 -173 53 -272 -3 -54 -9 -109 -12 -124 l-6 -28 607 0
608 0 -7 58 c-19 159 -27 338 -24 532 3 191 1 219 -15 248 -22 40 -87 88 -141
104 -23 6 -43 13 -45 14 -1 2 -7 37 -12 80 -8 72 -6 81 22 154 16 43 36 84 44
90 8 7 15 21 15 31 0 11 4 19 8 19 5 0 31 46 59 103 48 97 94 235 108 322 3
22 10 56 15 75 5 20 10 98 11 173 0 105 4 137 13 137 8 0 48 -22 90 -50 106
-69 173 -82 258 -49 44 17 47 17 42 1 -5 -16 -5 -16 6 0 6 10 17 18 24 18 7 0
34 11 60 25 26 14 44 19 40 13 -5 -7 9 0 29 15 20 15 37 23 37 17 0 -6 12 1
28 15 15 14 35 28 45 31 9 3 17 10 17 15 0 5 5 9 12 9 6 0 26 12 45 26 19 14
41 23 48 20 8 -3 15 -1 15 4 0 5 7 7 15 4 10 -4 13 -2 10 7 -6 15 10 18 128
22 58 3 85 -8 50 -19 -42 -14 -103 -48 -123 -69 -20 -22 -21 -27 -10 -78 6
-31 18 -61 26 -67 9 -8 14 -9 14 -2 0 6 -5 12 -10 14 -6 2 -13 19 -16 38 l-5
35 158 77 c148 72 384 210 391 229 2 5 9 9 16 9 17 0 109 98 129 137 22 42 37
141 37 245 0 47 3 94 6 103 6 14 8 14 31 0 40 -27 238 -93 326 -110 121 -23
304 -21 397 4 100 27 297 107 337 137 36 28 48 30 40 9 -4 -8 -3 -17 2 -19 4
-3 11 -54 15 -113 14 -233 54 -298 258 -420 152 -91 301 -162 488 -233 77 -29
95 -40 93 -56 -1 -16 2 -15 23 9 24 28 29 52 18 82 -5 13 -8 14 -15 3 -7 -10
-9 -9 -9 4 0 11 -5 15 -15 12 -9 -4 -15 0 -15 7 0 12 -2 12 -9 0 -6 -10 -10
-10 -16 -1 -8 14 -10 12 42 32 23 9 61 15 85 13 50 -3 154 -50 218 -99 42 -32
114 -74 205 -120 22 -11 43 -25 47 -30 5 -7 8 -6 8 3 0 11 4 11 18 -2 10 -10
22 -14 25 -10 4 3 7 -2 8 -13 0 -11 3 -14 6 -6 4 10 8 10 21 0 12 -10 14 -10
8 -1 -4 7 -4 14 1 14 42 7 51 5 46 -8 -5 -12 -7 -12 -14 -2 -4 8 -10 11 -13 8
-9 -8 8 -26 33 -34 15 -4 21 -3 17 3 -3 6 4 5 19 -1 31 -15 32 -27 3 -21 -21
4 -21 4 2 -6 13 -6 36 -8 50 -5 19 4 21 3 10 -5 -13 -8 -12 -10 3 -10 10 0 20
-7 24 -15 4 -12 11 -8 28 17 13 18 37 43 54 56 29 21 32 22 38 5 12 -33 87
-93 138 -109 74 -24 218 -28 258 -7 l32 16 -69 19 c-83 23 -183 88 -134 88 6
0 27 12 46 26 31 24 36 25 44 10 5 -9 27 -25 48 -36 48 -24 173 -29 241 -9 52
16 119 79 119 112 0 37 -12 67 -23 60 -33 -20 -163 8 -172 37 -4 11 -10 18
-14 16 -4 -3 -8 13 -8 36 -1 33 5 47 36 77 20 21 50 46 66 57 30 18 30 18 15
-1 -24 -31 10 -7 39 27 23 29 24 29 38 8 8 -11 18 -18 23 -15 4 3 11 -1 14 -7
4 -7 4 -3 2 10 -3 14 1 22 10 22 8 0 17 7 20 15 5 12 10 13 20 4 17 -14 37 -2
30 18 -4 11 -2 13 9 9 9 -3 15 0 15 10 0 8 5 12 10 9 6 -3 10 1 10 9 0 9 4 16
8 16 5 0 18 9 30 20 l21 20 26 -24 c14 -13 39 -29 56 -36 18 -8 28 -18 25 -26
-3 -9 0 -11 11 -7 12 5 14 3 8 -7 -5 -9 -4 -11 3 -6 35 21 103 -64 108 -134 4
-49 3 -51 -46 -99 -27 -27 -50 -53 -50 -58 0 -5 -8 -18 -18 -29 -21 -23 -43
-70 -35 -77 3 -3 18 10 35 29 30 34 178 124 203 124 8 0 16 4 20 9 3 5 31 12
63 16 78 8 141 33 177 68 l30 29 -35 -6 c-19 -4 -53 -9 -75 -12 -22 -3 -46 -7
-53 -9 -9 -3 -8 4 4 26 8 17 19 49 22 72 l8 42 46 0 c62 0 70 11 13 19 -40 7
-54 16 -112 77 -36 38 -71 69 -77 69 -13 1 -51 50 -38 50 4 0 6 15 4 33 -2 17
5 55 17 83 11 29 17 54 14 57 -3 3 4 12 16 19 12 7 21 16 21 21 0 4 18 32 39
61 21 28 41 61 44 72 2 10 5 -16 5 -59 0 -107 27 -161 99 -200 84 -45 215 -42
285 5 14 10 31 18 36 18 6 0 17 6 24 13 7 7 33 21 58 30 80 31 126 85 136 161
3 22 1 27 -12 22 -9 -3 -18 -6 -20 -6 -2 0 -4 -6 -4 -12 -1 -23 -66 -78 -114
-97 -36 -13 -59 -16 -89 -10 -23 4 -45 5 -49 3 -5 -3 -8 0 -8 5 0 6 -6 11 -14
11 -28 0 -64 56 -61 94 2 20 -1 36 -7 36 -5 0 0 13 11 29 12 16 21 34 21 40 0
5 17 22 38 38 50 37 151 140 184 188 62 92 83 153 84 255 2 120 -17 178 -85
248 -44 46 -141 111 -141 95 0 -4 -6 1 -13 11 -7 9 -19 18 -27 19 -8 2 -21 6
-27 10 -7 5 -13 5 -13 2 0 -3 -10 3 -22 15 -12 11 -26 20 -31 20 -15 0 -77 52
-77 65 0 8 17 19 38 26 20 6 49 18 64 26 15 7 29 12 30 11 2 -1 12 5 23 14 11
9 39 33 63 52 63 52 121 125 134 171 16 55 15 51 18 88 l2 32 12 -40 c20 -64
-1 -166 -45 -224 -25 -32 -100 -78 -181 -112 -67 -27 -122 -59 -103 -59 6 0
33 7 60 15 28 9 51 15 53 15 22 -2 32 2 26 12 -4 6 -3 8 4 4 16 -10 112 38
156 78 21 20 36 36 32 36 -3 0 2 9 11 19 25 30 43 91 43 151 0 60 -38 180 -66
211 -9 10 -14 19 -11 19 8 0 -30 44 -86 100 -43 44 -133 103 -212 140 -16 8
-37 20 -45 26 -8 7 -19 14 -25 15 -5 1 -21 9 -34 18 -14 8 -32 16 -40 16 -9 0
-15 5 -14 10 1 6 -8 12 -19 12 -11 1 -32 15 -47 31 -14 16 -35 32 -46 36 -11
3 -45 29 -75 56 -30 27 -59 50 -63 50 -4 0 -17 20 -28 44 l-19 44 21 36 c11
20 25 36 30 36 5 0 8 3 8 8 -3 19 2 33 11 27 6 -3 10 1 10 9 0 9 4 16 10 16 5
0 7 14 5 30 -2 17 1 30 7 30 6 0 9 3 5 6 -3 4 1 23 9 43 8 20 22 68 29 106 20
94 35 142 61 190 26 48 48 144 45 200 -1 22 -15 68 -32 103 -17 35 -28 66 -25
69 3 3 34 -23 69 -58 80 -81 88 -109 54 -206 -14 -37 -40 -102 -59 -143 -47
-100 -65 -185 -48 -220 1 -3 3 -12 4 -20 0 -8 7 -14 14 -12 8 1 11 -2 7 -8 -8
-14 24 -40 41 -33 7 2 15 0 18 -5 3 -6 21 -8 38 -5 46 7 158 59 158 74 0 6 7
17 15 23 9 6 17 25 19 43 3 18 8 37 11 43 18 28 -21 140 -48 140 -8 0 -19 -33
-23 -71 -9 -92 -66 -149 -148 -149 -7 0 -19 15 -28 33 -17 37 -12 60 39 162
17 33 36 78 43 100 7 22 18 51 25 65 7 14 23 66 34 116 51 218 31 382 -59 493
-55 68 -146 101 -315 116 -101 8 -164 32 -211 79 -55 54 -83 116 -84 184 l0
53 47 -32 c69 -48 126 -51 207 -9 55 28 66 38 79 74 12 33 17 111 8 111 -2 0
-4 8 -6 18 -4 19 -42 57 -57 57 -6 0 -7 -18 -3 -42 18 -112 -8 -155 -105 -175
-8 -1 -35 2 -60 7 -60 14 -86 59 -89 154 -2 65 -23 142 -56 206 -13 24 -14 38
-7 54 36 74 30 207 -13 322 -15 40 -49 101 -80 142 -45 59 -53 75 -47 94 15
39 13 175 -2 249 -18 84 -50 158 -97 220 -30 40 -53 61 -141 133 -35 28 -195
103 -270 126 -51 15 -68 26 -73 43 -13 41 -57 127 -66 127 -9 0 -4 -34 12 -78
16 -41 11 -53 -18 -50 -16 2 -31 7 -34 12 -4 5 -17 10 -30 11 -13 2 -37 8 -54
15 -16 6 -31 11 -32 11 -15 -3 -63 14 -63 21 0 6 -9 8 -20 5 -11 -3 -20 -2
-20 2 0 4 -36 24 -79 44 -76 36 -181 122 -181 148 0 6 -7 9 -15 5 -8 -3 -15
-1 -15 5 0 14 -47 59 -54 52 -3 -4 -6 2 -6 12 0 10 -3 16 -6 12 -3 -3 -20 8
-37 24 -18 17 -61 51 -96 77 -34 26 -83 62 -108 80 -52 39 -108 72 -183 108
-30 15 -63 31 -73 36 -10 5 -57 22 -105 39 -81 29 -95 33 -114 38 -4 1 -37 11
-73 21 -36 10 -65 17 -65 15 0 -2 -19 2 -42 9 -24 7 -62 12 -85 12 -24 -1 -43
2 -43 6 0 13 -270 6 -322 -7 -26 -8 -51 -14 -53 -14 -3 -1 -6 -1 -7 -2 -2 0
-12 -2 -23 -3 -53 -7 -233 -94 -243 -118 -2 -4 -9 -8 -16 -8 -7 0 -19 -11 -26
-25 -7 -14 -17 -25 -20 -25 -4 0 -20 19 -35 43 -42 62 -134 156 -182 184 -24
14 -43 29 -43 35 0 5 -4 6 -10 3 -5 -3 -10 -2 -10 2 0 12 -113 63 -215 99 -66
23 -102 28 -205 32 -69 2 -128 1 -132 -3z m256 -100 c37 -8 82 -24 100 -35
l31 -21 -30 7 c-16 4 -38 11 -47 15 -9 5 -34 11 -55 14 -21 4 -49 8 -63 10
-36 7 -149 7 -160 0 -4 -3 -30 -8 -57 -11 -26 -3 -57 -7 -68 -10 -13 -3 -10 1
8 11 15 9 49 19 75 22 26 3 49 7 51 9 10 10 152 2 215 -11z m-634 -79 c0 -3
-4 -8 -10 -11 -5 -3 -10 -1 -10 4 0 6 5 11 10 11 6 0 10 -2 10 -4z m-1010
-471 c-7 -9 -18 -14 -24 -12 -26 9 -233 -109 -282 -160 -12 -13 -24 -23 -28
-23 -8 0 -46 -38 -46 -46 0 -3 -13 -16 -28 -29 -16 -13 -44 -54 -63 -91 -37
-75 -35 -45 -26 -379 1 -70 -2 -98 -15 -124 -10 -19 -18 -40 -18 -47 0 -7 -17
-33 -39 -57 l-38 -45 -6 77 c-3 48 -17 112 -35 167 -81 238 -32 412 170 589
36 32 130 91 158 100 14 4 46 18 72 31 27 14 50 24 53 24 3 -1 22 4 43 10 20
6 62 14 92 17 30 3 57 7 59 9 11 10 12 2 1 -11z m4235 -285 c56 -32 306 -120
342 -120 28 0 60 -52 69 -110 l7 -45 -24 20 c-13 11 -27 25 -31 30 -4 6 -11
10 -15 10 -4 0 -21 9 -38 19 -16 11 -39 25 -50 31 -32 19 -250 105 -266 105
-8 0 -24 18 -36 40 -36 61 -33 63 42 20z m148 -160 c55 -27 103 -47 107 -45 4
3 10 -2 14 -10 3 -8 12 -15 21 -15 8 0 15 -3 15 -7 0 -5 18 -19 40 -32 84 -52
116 -119 139 -294 15 -110 16 -108 -16 -103 -16 2 -29 5 -30 6 -2 2 -6 3 -10
5 -162 44 -270 163 -366 401 -29 71 -57 135 -61 143 -14 22 34 6 147 -49z
m402 -35 c22 -9 51 -22 65 -27 14 -6 28 -11 33 -10 4 1 7 -2 7 -7 0 -11 102
-76 115 -72 5 1 7 0 4 -4 -4 -3 15 -28 42 -55 27 -27 56 -67 65 -89 9 -23 20
-41 24 -41 4 0 10 -12 13 -27 3 -16 12 -58 21 -95 14 -62 16 -212 2 -225 -3
-4 -14 1 -23 9 -22 19 -114 61 -168 77 -22 7 -49 16 -60 21 -11 5 -32 11 -47
14 -24 6 -28 11 -29 44 -2 122 -24 191 -98 304 -31 48 -55 99 -68 149 l-21 76
42 -12 c22 -7 59 -20 81 -30z m-4 -319 c25 -72 34 -186 14 -186 -16 0 -36 61
-30 92 3 12 -2 50 -10 85 -8 36 -15 72 -15 81 1 15 2 15 11 -2 6 -10 20 -42
30 -70z m-2688 -213 c42 -22 78 -24 137 -9 27 7 47 9 43 3 -3 -5 4 -4 16 3 12
6 34 9 49 6 15 -3 47 -8 72 -11 25 -3 53 -8 62 -11 18 -5 58 -79 58 -106 0 -9
14 -30 31 -47 l31 -31 -81 -78 c-90 -88 -134 -166 -145 -262 -15 -130 37 -267
128 -338 93 -72 150 -96 237 -99 62 -2 84 2 120 20 50 26 85 68 75 92 -6 16
-8 16 -29 2 -39 -25 -106 -30 -160 -12 -57 19 -144 73 -171 106 -54 64 -56
195 -6 271 37 56 192 164 249 174 7 1 23 12 35 23 12 12 26 21 30 21 4 0 21 9
36 20 l29 21 5 -33 c4 -18 8 -45 10 -61 3 -15 5 -82 6 -150 2 -106 11 -228 24
-319 6 -42 74 -144 122 -183 23 -19 80 -53 126 -75 78 -37 122 -50 264 -75
113 -19 136 -29 170 -71 40 -48 88 -143 99 -194 4 -19 14 -48 22 -63 24 -47
11 -49 -47 -10 -205 138 -402 207 -669 233 -124 13 -336 8 -388 -8 -18 -6 -33
-7 -33 -2 0 22 -168 -47 -213 -88 -24 -21 -54 -79 -58 -112 l-4 -25 95 0 c130
1 175 5 325 26 212 31 457 24 665 -17 132 -26 340 -102 340 -124 0 -5 -6 -27
-14 -47 -13 -34 -45 -185 -61 -286 -3 -21 -11 -40 -18 -41 -7 -2 -34 -10 -61
-18 -52 -16 -90 -13 -80 4 4 6 0 15 -7 20 -10 7 -8 8 9 5 12 -3 20 -1 16 4 -3
5 -13 9 -22 9 -15 0 -15 2 -2 10 38 24 -30 68 -185 119 -129 42 -214 55 -341
48 -227 -11 -396 -93 -493 -239 -57 -85 -51 -94 14 -21 31 34 78 76 105 94 52
34 161 81 169 74 2 -3 -2 -5 -10 -5 -12 0 -11 -2 1 -11 12 -9 12 -10 -4 -5
-26 9 -39 -14 -19 -36 14 -16 12 -18 -18 -27 -19 -5 -27 -10 -19 -10 10 -1 8
-6 -8 -17 -12 -8 -27 -12 -34 -8 -6 4 -8 3 -5 -3 3 -5 -11 -22 -31 -38 -99
-75 -200 -262 -231 -428 -7 -41 -7 -64 1 -82 l11 -24 18 37 c10 20 38 82 62
138 38 88 90 174 104 174 3 0 3 -17 0 -37 -18 -144 68 -300 201 -365 64 -32
72 -33 182 -33 103 0 120 3 164 25 61 31 131 92 161 140 49 78 68 203 44 295
-24 91 -24 89 -3 80 10 -4 28 -7 38 -7 11 1 46 -14 77 -33 70 -43 75 -61 44
-176 -29 -110 -42 -132 -112 -201 -108 -105 -285 -167 -483 -168 -36 0 -60 -4
-55 -8 6 -4 10 -14 10 -22 0 -21 66 -41 150 -47 90 -7 227 19 313 58 61 27 64
28 59 8 -3 -12 -3 -18 0 -15 4 3 13 0 21 -7 13 -10 14 -9 3 11 -15 29 -7 40
15 22 14 -12 15 -10 9 22 -6 31 -4 37 14 43 11 3 30 1 41 -5 29 -15 39 -4 14
16 -18 15 -18 15 0 10 16 -6 17 -4 6 9 -14 17 0 21 17 4 9 -9 10 -7 6 10 -4
15 -1 21 11 21 9 0 16 8 16 20 0 11 -5 20 -11 20 -7 0 -1 11 13 25 13 13 33
41 44 62 10 21 21 40 24 43 3 3 18 25 34 50 l29 45 10 -28 c5 -15 13 -25 18
-21 5 3 8 2 7 -3 -2 -5 8 -30 22 -55 l24 -47 -32 -46 c-17 -25 -32 -50 -32
-55 0 -6 -5 -10 -10 -10 -6 0 -22 -11 -35 -25 -14 -13 -25 -22 -25 -19 0 3
-13 -10 -30 -28 -16 -18 -30 -37 -30 -42 0 -5 -3 -6 -7 -3 -3 4 -12 -2 -20
-13 -8 -11 -19 -20 -25 -20 -6 0 -5 7 3 17 12 14 12 16 -1 11 -8 -3 -14 -13
-13 -24 3 -29 -25 -74 -42 -68 -11 4 -13 2 -10 -9 4 -8 -1 -21 -9 -30 -8 -8
-18 -26 -22 -41 -3 -14 -10 -26 -15 -26 -5 0 -9 -8 -9 -17 0 -16 -2 -16 -11
-3 -8 12 -9 11 -7 -5 2 -15 -2 -19 -16 -17 -18 3 -18 2 -2 -13 9 -9 16 -21 16
-26 0 -6 3 -8 8 -5 4 2 6 -13 4 -35 -2 -21 -1 -47 3 -57 4 -9 9 -30 10 -46 2
-24 1 -27 -7 -12 -5 9 -7 24 -4 32 3 9 1 12 -4 9 -6 -3 -10 -13 -10 -21 0 -8
-4 -14 -9 -14 -5 0 -7 -10 -3 -22 5 -21 6 -21 13 -2 5 13 8 15 9 4 2 -8 2 -18
1 -22 0 -5 3 -8 9 -8 5 0 10 5 10 10 0 17 23 6 45 -20 11 -14 23 -27 28 -28 4
-2 2 -11 -5 -20 -11 -13 -10 -15 5 -9 21 8 60 -10 52 -23 -4 -6 1 -7 11 -3 10
3 15 2 12 -3 -3 -5 6 -9 21 -10 14 0 43 -9 63 -18 20 -10 42 -14 49 -10 9 5
10 -3 4 -32 -4 -21 -10 -43 -13 -49 -3 -5 -21 -53 -39 -107 -53 -158 -148
-305 -287 -443 -112 -111 -123 -120 -250 -204 -273 -183 -714 -394 -933 -448
-172 -42 -476 -7 -668 77 -11 5 -96 39 -190 76 -202 79 -445 200 -570 283
-113 75 -211 167 -315 297 -60 75 -115 173 -185 330 -32 74 -107 345 -109 396
0 20 -3 35 -6 33 -3 -2 -7 14 -7 36 -1 23 2 37 8 34 5 -4 9 0 9 7 0 8 15 30
33 50 17 20 33 42 35 50 2 7 11 20 20 28 18 15 22 22 22 41 0 5 6 7 13 3 9 -6
9 -4 -1 8 -11 14 -10 19 9 36 11 11 18 25 15 31 -4 5 -2 12 4 16 6 4 7 11 4
17 -4 6 -2 13 5 17 6 4 13 23 15 42 2 19 4 37 5 42 2 14 20 7 46 -19 24 -24
25 -27 10 -44 -24 -26 -2 -33 28 -10 25 20 27 20 64 3 21 -10 40 -21 44 -25 3
-4 36 -19 74 -32 48 -17 71 -30 77 -46 8 -22 28 -19 28 4 0 8 28 12 103 12
119 1 187 16 187 42 0 10 5 23 10 28 8 8 -22 13 -97 17 -227 12 -436 116 -506
252 -22 43 -58 157 -61 192 0 11 -5 19 -10 15 -5 -3 -7 2 -3 11 3 10 2 17 -4
17 -6 0 -7 5 -4 10 4 6 11 8 16 5 5 -4 9 -2 9 2 0 5 21 19 48 31 43 21 45 21
22 3 -36 -30 -18 -26 59 12 l68 34 -14 -56 c-9 -34 -14 -87 -11 -136 8 -198
154 -345 361 -362 121 -10 278 51 293 114 4 15 22 41 40 56 40 34 64 104 64
190 0 48 2 56 13 45 23 -24 77 -119 117 -204 24 -53 44 -84 54 -84 26 0 19 52
-20 169 -71 213 -168 329 -349 417 -49 24 -84 44 -77 44 8 0 10 5 6 12 -5 8
-2 9 12 4 22 -9 24 -9 44 -6 8 1 -14 12 -50 25 -37 13 -55 24 -42 24 75 3 280
-105 358 -188 37 -38 42 -42 37 -21 -11 44 -151 174 -228 212 -114 57 -189 73
-350 72 -135 0 -144 -1 -255 -38 -63 -21 -128 -45 -145 -53 -30 -14 -30 -14
-9 5 49 42 66 129 44 213 -7 24 -13 49 -14 54 -1 6 -7 20 -14 32 -15 27 -16
70 -2 78 6 4 63 13 128 20 138 17 368 19 467 4 143 -21 371 -31 415 -19 14 4
24 14 22 21 -1 8 4 6 13 -5 15 -19 15 -19 15 2 0 13 -9 40 -20 61 -22 43 -82
99 -88 82 -2 -7 -13 -4 -30 8 -69 49 -135 61 -342 61 -84 0 -85 1 -59 18 14 9
41 31 60 49 19 18 43 40 54 48 11 9 14 13 6 10 -9 -6 -9 -1 3 17 16 25 43 185
32 195 -3 3 9 17 26 30 36 26 135 120 158 149 41 52 70 93 70 99 0 4 8 19 19
33 34 49 54 133 57 230 1 51 -2 94 -6 97 -9 5 -6 123 4 150 4 11 21 31 38 44
l30 25 -7 -24 c-8 -24 -7 -24 18 -7 15 9 31 17 37 17 6 0 29 8 53 19 110 49
206 68 345 70 70 1 101 -3 125 -16z m508 -4 c42 -15 79 -47 79 -70 0 -9 5 -19
11 -21 17 -6 0 -34 -28 -47 -20 -9 -29 -9 -41 1 -22 18 -54 96 -46 110 4 6 3
8 -3 5 -6 -4 -13 2 -16 13 -6 23 -2 24 44 9z m-3906 -211 c6 -3 46 -9 90 -12
44 -4 95 -10 113 -13 34 -6 36 -15 4 -19 -61 -8 -219 -85 -293 -142 -77 -60
-179 -234 -166 -284 3 -10 1 -18 -4 -18 -5 0 -9 -27 -9 -60 0 -50 -3 -62 -21
-72 -30 -19 -93 -133 -112 -203 -21 -77 -26 -134 -18 -212 4 -35 4 -63 0 -63
-10 0 -191 140 -213 164 -88 100 -136 222 -137 352 -1 59 29 193 47 211 7 7
15 26 19 43 4 16 11 30 16 30 5 0 15 16 24 36 8 20 26 45 40 56 14 11 25 26
25 34 0 8 5 12 10 9 6 -3 10 1 10 10 0 9 5 13 10 10 6 -3 10 -1 10 5 0 6 8 14
18 17 9 4 25 15 36 24 38 36 164 86 240 95 16 2 31 6 34 8 6 7 216 1 227 -6z
m3865 -102 c0 -2 -8 -10 -17 -17 -16 -13 -17 -12 -4 4 13 16 21 21 21 13z
m-3858 -111 c-74 -79 -101 -127 -126 -219 -8 -32 -16 -59 -18 -60 -2 -1 -20
-14 -41 -30 l-38 -28 5 62 c3 34 10 68 16 75 7 8 9 19 5 25 -3 5 -2 10 4 10 6
0 19 19 30 43 11 23 30 53 43 67 35 38 118 104 118 94 0 -5 5 -1 11 9 6 9 14
15 20 12 5 -4 9 -1 9 4 0 6 7 11 16 11 10 0 -11 -29 -54 -75z m3832 67 c3 -5
-1 -9 -9 -9 -8 0 -12 4 -9 9 3 4 7 8 9 8 2 0 6 -4 9 -8z m1 -32 c4 -6 1 -9 -7
-8 -7 2 -12 -3 -10 -11 3 -12 0 -12 -11 -2 -10 8 -17 8 -20 1 -3 -6 -4 -5 -3
2 2 7 8 13 14 13 5 0 14 3 18 8 10 9 12 9 19 -3z m-53 -57 c-6 -2 -10 -9 -6
-14 3 -5 0 -9 -5 -9 -12 0 -14 13 -4 23 3 4 11 7 17 6 6 0 5 -3 -2 -6z m-3883
-488 c30 -112 23 -163 -21 -161 -17 1 -30 15 -50 54 -15 28 -26 52 -24 52 2 0
-2 21 -10 47 -8 25 -14 64 -14 87 0 34 7 47 43 84 l42 43 6 -63 c4 -35 16 -99
28 -143z m-155 13 c9 -56 36 -138 45 -138 4 0 13 -12 20 -27 11 -24 10 -29 -6
-38 -39 -22 -129 -121 -139 -154 -12 -43 -30 -50 -38 -15 -11 43 -5 175 11
234 22 83 78 194 94 184 4 -2 9 -23 13 -46z m2542 10 c5 -8 2 -9 -9 -5 -10 3
-17 3 -17 -2 0 -11 -107 -56 -124 -52 -5 1 -17 -6 -27 -15 -11 -9 -19 -12 -19
-6 0 12 115 73 123 65 3 -3 16 2 29 11 27 19 34 20 44 4z m79 -70 c-1 -13 1
-27 5 -33 33 -44 -80 -208 -161 -233 -19 -6 -81 -18 -139 -26 -89 -14 -236
-46 -317 -71 -19 -6 -22 -4 -18 14 2 12 18 42 34 67 17 25 31 48 31 52 0 15
99 81 166 110 38 17 105 41 149 55 44 13 110 36 147 51 37 15 72 25 77 21 5
-3 12 -1 16 5 9 15 12 12 10 -12z m-308 -24 c-3 -3 -12 -4 -19 -1 -8 3 -5 6 6
6 11 1 17 -2 13 -5z m-354 -103 c-22 -22 -46 -55 -53 -73 -7 -18 -18 -46 -25
-63 -8 -16 -19 -52 -25 -80 -18 -79 -30 -95 -95 -127 -33 -17 -68 -37 -78 -46
-23 -20 -43 -3 -29 24 5 11 18 44 27 74 43 133 137 248 247 303 72 36 78 34
31 -12z m4963 -199 c6 -34 46 -102 73 -124 24 -21 81 -51 81 -43 0 3 10 -1 23
-10 25 -16 62 -22 190 -29 84 -5 159 -33 180 -67 7 -11 17 -19 23 -19 12 0 25
-22 55 -100 17 -44 22 -77 22 -163 0 -69 -4 -112 -11 -119 -7 -7 -12 -8 -12
-2 0 17 -54 69 -105 100 -70 43 -244 117 -340 145 -147 43 -188 63 -243 119
-37 39 -53 77 -54 130 0 56 8 85 31 111 9 11 14 21 11 23 -3 2 4 13 14 25 11
12 16 21 12 21 -4 0 0 7 8 16 9 8 16 23 16 32 1 15 2 15 11 -1 6 -10 13 -30
15 -45z m-6740 -17 c-27 -72 -38 -148 -34 -242 3 -57 2 -103 -2 -103 -4 0 -13
14 -20 30 -7 17 -17 30 -22 30 -6 0 -8 7 -4 15 3 9 0 15 -10 15 -10 0 -14 6
-10 15 3 8 2 15 -2 15 -4 0 -9 12 -11 28 -7 60 0 102 17 102 8 0 12 6 8 15 -3
8 -1 15 5 15 5 0 13 8 16 18 7 19 53 62 67 62 4 0 5 -7 2 -15z m1709 -246 c15
-68 13 -99 -10 -123 -13 -14 -20 -28 -16 -32 3 -4 -2 -4 -11 -1 -11 4 -15 2
-12 -7 5 -12 -53 -46 -90 -53 -11 -2 -25 -8 -32 -14 -9 -7 -12 -6 -9 8 2 10 4
22 4 27 1 5 7 4 14 -2 10 -8 16 -6 25 9 7 11 8 19 2 19 -5 0 -10 -5 -10 -11 0
-5 -4 -8 -9 -4 -6 3 -3 18 7 34 9 16 20 27 24 25 5 -3 8 -2 9 3 4 42 40 98 54
85 5 -4 5 -2 1 5 -3 6 1 28 11 47 19 41 37 35 48 -15z m-241 -51 c-5 -8 -2 -9
10 -5 10 4 15 3 11 -3 -4 -6 -17 -8 -31 -6 -19 4 -27 0 -33 -16 -6 -18 -9 -18
-14 -5 -7 18 17 42 33 32 5 -3 10 -1 10 4 0 6 5 11 11 11 5 0 7 -5 3 -12z m-4
-43 c-7 -8 -17 -15 -22 -15 -11 0 14 29 26 30 5 0 3 -7 -4 -15z m-57 -75 c3
-11 1 -18 -4 -14 -5 3 -9 12 -9 20 0 20 7 17 13 -6z m104 -82 c-3 -7 -5 -2 -5
12 0 14 2 19 5 13 2 -7 2 -19 0 -25z m240 17 c0 -8 -4 -12 -9 -9 -5 3 -6 10
-3 15 9 13 12 11 12 -6z m-20 -29 c4 -4 3 -6 -3 -4 -6 2 -24 -8 -40 -22 -42
-37 -83 -53 -99 -40 -10 8 -15 8 -21 -1 -4 -8 -3 -9 4 -5 18 11 14 -10 -4 -28
-18 -18 -31 -20 -36 -6 -2 6 -14 6 -33 1 -16 -5 -26 -10 -22 -10 5 -1 5 -6 2
-11 -4 -7 -13 -6 -27 1 -18 10 -19 8 -13 -12 6 -19 5 -20 -8 -8 -8 8 -13 18
-10 22 6 10 55 31 66 29 4 -1 7 3 7 9 0 6 7 9 15 5 8 -3 15 -1 15 4 0 6 5 10
11 10 5 0 7 -6 4 -12 -4 -7 2 -2 13 12 12 14 33 26 54 28 18 2 39 9 47 15 7 7
21 12 30 12 9 0 15 5 14 12 -3 12 22 12 34 -1z m-1793 -25 c27 -28 27 -31 17
-83 -14 -65 -45 -106 -94 -123 -38 -13 -48 -7 -22 15 21 17 45 104 45 160 0
69 11 76 54 31z m4276 -51 c8 -5 11 -10 5 -10 -5 0 -17 5 -25 10 -8 5 -10 10
-5 10 6 0 17 -5 25 -10z m-2683 -56 c-9 -9 -28 6 -21 18 4 6 10 6 17 -1 6 -6
8 -13 4 -17z m123 -9 c0 -8 -8 -15 -17 -16 -15 0 -15 -2 2 -9 19 -7 19 -8 -5
-14 -14 -4 -46 -3 -72 2 -37 7 -50 6 -59 -4 -8 -10 -8 -18 -1 -27 8 -10 6 -13
-11 -14 -16 -2 -18 0 -8 6 10 7 8 11 -9 16 -20 6 -21 9 -7 17 10 5 17 16 17
25 0 11 6 14 22 10 12 -4 27 -2 33 3 5 5 28 10 50 13 22 2 46 4 53 5 6 1 12
-5 12 -13z m3935 -14 c-3 -6 -16 -16 -28 -22 -21 -11 -21 -10 2 15 23 25 40
29 26 7z m50 -1 c-3 -5 -11 -10 -16 -10 -6 0 -7 5 -4 10 3 6 11 10 16 10 6 0
7 -4 4 -10z m51 -5 c-8 -8 -18 -15 -22 -15 -3 0 -1 7 6 15 7 8 17 15 22 15 5
0 3 -7 -6 -15z m-51 -21 c9 3 13 2 10 -4 -3 -6 -13 -10 -21 -10 -8 0 -14 -8
-14 -17 0 -13 -4 -12 -14 7 -15 30 -10 46 10 29 7 -6 21 -9 29 -5z m-3950 -4
c3 -5 2 -10 -4 -10 -5 0 -13 5 -16 10 -3 6 -2 10 4 10 5 0 13 -4 16 -10z
m3955 -50 c0 -5 -4 -10 -10 -10 -5 0 -10 5 -10 10 0 6 5 10 10 10 6 0 10 -4
10 -10z m40 -5 c0 -8 5 -15 12 -15 6 0 8 -3 5 -6 -8 -8 -37 14 -37 27 0 5 5 9
10 9 6 0 10 -7 10 -15z m-4578 -27 c-8 -8 -9 -4 -5 13 4 13 8 18 11 10 2 -7
-1 -18 -6 -23z m4405 0 c-3 -8 -6 -5 -6 6 -1 11 2 17 5 13 3 -3 4 -12 1 -19z
m-3283 -9 c48 -38 23 -109 -39 -109 -58 0 -86 69 -45 110 26 26 51 25 84 -1z
m2038 -6 c40 -36 9 -105 -47 -105 -30 0 -54 27 -55 61 0 53 62 80 102 44z
m1235 -25 c-3 -8 -6 -5 -6 6 -1 11 2 17 5 13 3 -3 4 -12 1 -19z m-5687 3 c0
-12 -21 -27 -45 -33 -11 -3 -28 -9 -37 -13 -37 -15 -16 14 25 34 46 23 57 25
57 12z m5873 -28 c-5 -34 -22 -47 -18 -15 2 19 16 54 20 50 1 -2 0 -18 -2 -35z
m-59 -4 c18 -21 18 -22 -7 -17 -19 4 -24 1 -20 -9 4 -10 0 -14 -14 -11 -11 1
-27 -3 -36 -11 -15 -11 -17 -11 -17 2 0 8 9 17 21 20 12 3 18 10 14 16 -3 7 2
11 14 11 12 0 21 5 21 10 0 14 3 13 24 -11z m-110 -5 c3 -8 2 -12 -4 -9 -6 3
-10 10 -10 16 0 14 7 11 14 -7z m-5589 -23 c-8 -16 -24 -56 -36 -88 -22 -57
-66 -133 -78 -133 -3 0 -20 -13 -37 -30 -18 -16 -34 -26 -38 -23 -3 3 -16 -1
-28 -9 -24 -16 -110 -43 -168 -53 -19 -3 -60 -13 -90 -23 -30 -9 -57 -17 -60
-17 -45 -12 -60 -19 -60 -26 0 -5 -3 -8 -7 -7 -15 4 -50 -21 -68 -48 -9 -14
-11 -23 -4 -19 8 6 10 4 5 -4 -5 -7 -14 -10 -22 -7 -8 3 -11 0 -8 -8 3 -7 -2
-21 -11 -30 -9 -9 -13 -16 -10 -16 4 0 0 -11 -9 -25 -10 -14 -16 -34 -15 -43
1 -9 -1 -25 -6 -35 -4 -10 -5 -42 -3 -72 3 -30 2 -55 -2 -55 -15 0 -72 123
-84 183 -34 163 19 269 189 378 110 70 273 132 385 145 51 6 119 17 138 23 1
1 5 2 10 3 4 1 32 16 62 34 68 41 74 42 55 5z m5552 -23 c-3 -8 -6 -5 -6 6 -1
11 2 17 5 13 3 -3 4 -12 1 -19z m146 6 c-18 -9 -53 -35 -78 -59 -40 -37 -47
-40 -55 -25 -12 22 -1 68 11 48 12 -18 11 -31 -1 -23 -5 3 -10 1 -10 -4 0 -18
18 -13 33 9 15 22 94 68 117 69 8 0 0 -7 -17 -15z m-4586 -50 c-3 -3 -12 -4
-19 -1 -8 3 -5 6 6 6 11 1 17 -2 13 -5z m118 -24 c3 -5 1 -10 -4 -10 -6 0 -11
5 -11 10 0 6 2 10 4 10 3 0 8 -4 11 -10z m-1895 -8 c0 -10 -29 -34 -64 -52
-40 -21 -126 -99 -126 -115 0 -7 -6 -15 -13 -18 -14 -5 -49 -72 -66 -126 -14
-42 -14 -145 -1 -190 12 -43 6 -50 -21 -25 -56 50 -90 137 -90 228 0 57 23
137 49 167 37 44 75 79 80 75 2 -3 22 4 43 15 21 10 42 19 46 18 5 -1 10 0 13
1 12 4 48 12 85 17 22 3 42 7 44 9 7 7 21 4 21 -4z m1920 -32 c0 -5 -2 -10 -4
-10 -3 0 -8 5 -11 10 -3 6 -1 10 4 10 6 0 11 -4 11 -10z m68 -45 c3 -15 2 -16
-11 -4 -8 8 -12 18 -9 23 3 5 -2 7 -11 3 -17 -6 -31 5 -20 17 10 9 48 -19 51
-39z m309 -24 c3 -11 11 -17 18 -15 8 3 19 -5 26 -18 6 -13 17 -26 23 -30 11
-8 18 -146 8 -163 -4 -5 -7 -12 -7 -15 0 -3 -6 -14 -14 -25 -7 -11 -10 -13 -8
-5 3 9 -1 24 -9 34 -7 11 -11 22 -9 26 3 5 -2 24 -10 44 -8 19 -14 39 -13 43
1 5 -4 19 -12 33 -17 32 -24 110 -9 110 6 0 13 -9 16 -19z m563 -60 c0 -5 14
-12 30 -16 17 -4 28 -10 25 -15 -3 -4 1 -10 9 -13 9 -4 12 -14 9 -27 -5 -17
-11 -20 -32 -15 -14 4 -34 14 -43 22 -19 17 -25 73 -8 73 6 0 10 -4 10 -9z
m3085 -161 c-4 -12 -9 -19 -12 -17 -3 3 -2 15 2 27 4 12 9 19 12 17 3 -3 2
-15 -2 -27z m46 -82 c-6 -17 -9 -34 -6 -38 9 -15 -64 -393 -77 -398 -4 -2 -5
-8 -2 -13 3 -6 3 -22 0 -36 -6 -21 -11 -24 -34 -18 -15 4 -33 8 -40 9 -8 1
-17 7 -20 13 -4 5 -17 15 -29 22 -36 19 -58 77 -58 151 1 58 7 77 53 170 56
112 92 164 99 142 5 -13 23 -7 23 9 0 6 -4 7 -10 4 -17 -10 -11 15 9 41 17 21
20 22 26 7 6 -16 8 -16 23 3 29 37 47 35 50 -4 2 -18 -1 -47 -7 -64z m-5540
-4 c-12 -9 -21 -23 -21 -33 0 -10 -6 -31 -14 -47 -34 -67 -27 -217 15 -353 22
-73 33 -179 20 -200 -7 -10 -11 0 -16 32 -4 26 -11 50 -16 53 -5 3 -7 10 -4
15 4 5 1 9 -5 9 -6 0 -9 4 -5 9 3 5 1 12 -5 16 -6 4 -8 11 -5 16 4 5 1 9 -4 9
-6 0 -11 5 -11 11 0 16 -60 141 -78 162 -8 9 -12 17 -8 17 4 0 4 6 -1 13 -17
28 -26 114 -12 123 5 3 7 10 3 15 -8 14 85 119 136 151 38 24 46 26 48 12 2
-8 -6 -22 -17 -30z m5984 -134 c8 0 17 5 20 10 3 6 15 10 26 10 15 0 19 -7 19
-35 0 -51 0 -50 -15 -49 -8 1 -12 -2 -9 -7 3 -5 12 -9 21 -9 11 0 13 -3 5 -12
-5 -7 -18 -37 -27 -65 -10 -31 -22 -50 -28 -46 -6 3 -7 1 -3 -5 12 -19 -13
-53 -90 -127 -91 -88 -152 -120 -239 -128 -94 -8 -120 14 -89 78 21 46 25 94
9 125 -8 15 -11 31 -7 35 4 5 2 5 -5 1 -16 -9 -25 8 -18 36 15 58 375 229 375
178 0 -5 7 -7 16 -3 15 6 15 7 0 19 -16 11 -16 12 1 16 10 2 19 -2 21 -9 2 -7
10 -13 17 -13z m-865 -85 c-7 -9 -15 -13 -17 -11 -7 7 7 26 19 26 6 0 6 -6 -2
-15z m-3580 -25 c0 -5 -4 -10 -9 -10 -6 0 -13 5 -16 10 -3 6 1 10 9 10 9 0 16
-4 16 -10z m38 -31 c-3 -8 -7 -3 -11 10 -4 17 -3 21 5 13 5 -5 8 -16 6 -23z
m39 -3 c0 -8 -6 -12 -14 -9 -7 3 -10 9 -7 14 8 14 21 11 21 -5z m-2069 -169
c51 -94 57 -113 39 -132 -29 -28 -40 -22 -43 27 -2 26 -14 79 -27 118 -14 38
-21 68 -17 65 5 -3 26 -38 48 -78z m2242 5 c0 -10 3 -22 7 -26 4 -4 9 -19 11
-33 2 -15 7 -35 13 -44 15 -29 20 -131 6 -124 -7 4 -4 0 6 -8 29 -24 -1 -37
-89 -36 -69 1 -76 3 -60 15 18 13 18 14 -7 25 -14 6 -28 23 -32 36 -5 21 -8
23 -21 12 -13 -11 -14 -8 -10 15 3 16 12 39 21 52 8 13 15 30 15 39 0 9 5 13
10 10 6 -3 10 1 10 10 0 9 5 13 10 10 6 -3 10 -1 10 6 0 35 62 65 73 37 3 -8
6 -6 6 5 1 23 21 22 21 -1z m-290 -52 c0 -11 -4 -20 -9 -20 -6 0 -9 9 -8 20 1
11 5 20 9 20 4 0 8 -9 8 -20z m-10 -41 c0 -4 -7 -6 -15 -3 -8 4 -15 10 -15 15
0 4 7 6 15 3 8 -4 15 -10 15 -15z m6399 -50 c25 -18 51 -39 57 -48 7 -9 24
-29 38 -46 41 -46 52 -94 37 -163 -21 -96 -67 -176 -127 -224 -59 -48 -106
-82 -114 -84 -3 0 -14 -4 -25 -8 -61 -23 -74 -27 -96 -29 -13 0 -29 -8 -36
-17 -11 -13 -12 -13 -13 0 0 8 28 47 61 85 34 39 72 83 85 98 14 15 30 39 36
52 6 14 14 25 18 25 4 0 16 19 28 43 64 127 66 213 5 310 -28 45 -16 47 46 6z
m-6282 -81 c-3 -8 -6 -5 -6 6 -1 11 2 17 5 13 3 -3 4 -12 1 -19z m54 -10 c11
-8 11 -9 -2 -5 -9 3 -22 1 -28 -4 -7 -6 -8 -5 -2 2 5 6 7 19 4 28 -4 13 -3 13
5 2 5 -7 16 -18 23 -23z m-1945 -7 c-3 -4 2 -17 10 -27 9 -10 12 -13 8 -5 -4
9 -3 12 4 7 6 -4 8 -14 5 -23 -4 -9 -2 -14 3 -10 5 3 10 -2 11 -11 1 -9 9 -38
19 -63 16 -41 16 -51 4 -75 -7 -16 -13 -32 -12 -36 1 -5 -1 -7 -6 -7 -28 5
-76 -35 -66 -54 4 -7 4 -9 0 -5 -4 3 -6 8 -4 10 2 2 -17 23 -42 47 -49 47
-104 75 -153 80 -9 1 5 20 44 60 33 34 69 62 69 54 0 -3 10 3 23 15 18 17 75
52 85 52 2 0 1 -4 -2 -9z m-363 -89 c-66 -87 -83 -178 -55 -290 7 -30 11 -56
8 -59 -9 -10 -83 71 -105 115 -41 80 -22 174 46 232 29 25 43 31 75 34 10 1
20 4 22 7 3 3 14 5 25 6 17 1 15 -4 -16 -45z m445 13 c-3 -3 -9 2 -12 12 -6
14 -5 15 5 6 7 -7 10 -15 7 -18z m92 -128 c0 -21 -137 -164 -147 -154 -6 7 46
97 56 97 4 0 20 22 36 49 23 37 33 47 43 39 6 -6 12 -20 12 -31z m7762 -374
c10 -9 18 -22 18 -29 0 -7 10 -16 23 -20 12 -4 24 -9 27 -13 7 -8 31 -23 140
-82 52 -28 99 -58 106 -67 7 -9 16 -12 25 -7 8 5 11 5 7 0 -4 -4 -2 -13 6 -19
8 -6 27 -36 44 -66 28 -52 30 -62 28 -152 -1 -92 -3 -100 -44 -180 -27 -54
-67 -109 -112 -158 -70 -76 -81 -77 -55 -5 18 51 19 127 1 185 -7 25 -14 76
-15 113 -2 80 -15 111 -75 170 -56 55 -61 59 -131 91 -185 86 -195 92 -187
114 2 6 -3 12 -12 12 -29 0 -16 25 26 50 148 90 150 90 180 63z m-8161 -90 c1
-16 2 -48 3 -73 1 -25 5 -54 10 -65 4 -11 11 -29 16 -40 8 -22 109 -105 127
-105 6 0 17 -10 25 -22 19 -32 77 -190 76 -208 -2 -32 2 -51 11 -45 5 3 12 1
16 -4 8 -13 9 -121 1 -128 -17 -18 -114 117 -315 439 l-92 148 18 27 c25 38
85 103 95 103 4 0 9 -12 9 -27z m8249 -981 c0 -45 52 -118 95 -132 26 -8 34
-15 26 -23 -14 -14 -126 10 -144 32 -23 26 -28 89 -11 122 19 37 34 37 34 1z
m-1344 -749 c0 -54 3 -108 7 -120 7 -20 5 -21 -38 -19 -30 2 -53 10 -66 23
l-21 20 29 59 c15 33 31 60 35 62 4 2 17 19 28 38 12 19 23 34 25 34 1 0 2
-44 1 -97z m-366 -279 c0 -2 -7 -4 -15 -4 -8 0 -15 4 -15 10 0 5 7 7 15 4 8
-4 15 -8 15 -10z"/>
<path d="M4198 6773 c7 -3 16 -2 19 1 4 3 -2 6 -13 5 -11 0 -14 -3 -6 -6z"/>
<path d="M6587 5844 c6 -15 23 -19 23 -5 0 5 -7 11 -14 14 -10 4 -13 1 -9 -9z"/>
<path d="M4998 5193 c7 -3 16 -2 19 1 4 3 -2 6 -13 5 -11 0 -14 -3 -6 -6z"/>
<path d="M5187 5189 c6 -6 9 -19 6 -28 -4 -13 -2 -13 7 2 12 19 6 37 -13 37
-8 0 -8 -3 0 -11z"/>
<path d="M3657 5168 c-7 -25 -1 -38 18 -38 19 0 27 17 20 40 -8 27 -31 25 -38
-2z"/>
<path d="M4957 5173 c-11 -10 -8 -35 3 -28 5 3 18 0 29 -7 16 -10 23 -10 33 0
9 9 6 12 -15 12 -17 0 -27 5 -27 15 0 16 -12 20 -23 8z"/>
<path d="M5041 5153 c0 -18 -6 -33 -12 -33 -5 0 -7 -6 -3 -12 6 -10 5 -10 -7
-2 -8 7 -34 12 -58 12 -24 1 -47 5 -50 10 -3 6 -11 4 -19 -4 -11 -12 -10 -14
3 -14 16 0 45 -22 45 -34 0 -3 -9 -6 -21 -6 -11 0 -17 5 -14 10 3 6 -1 10 -9
10 -10 0 -13 -6 -10 -17 5 -17 5 -17 -6 0 -6 9 -17 17 -24 17 -8 0 -19 6 -25
14 -10 12 -8 15 11 19 16 4 14 5 -7 4 -26 -2 -31 -6 -35 -37 -3 -23 -8 -31
-13 -22 -16 24 -37 11 -66 -40 -38 -66 -48 -133 -27 -183 29 -69 67 -93 187
-120 9 -2 34 -8 55 -14 81 -23 230 -8 304 29 19 9 47 23 63 30 15 8 27 16 27
20 0 3 6 14 13 24 13 17 14 18 20 2 4 -10 3 -15 -3 -11 -5 3 -7 -1 -4 -9 8
-20 34 -8 34 16 0 10 5 16 10 13 10 -6 34 44 25 53 -2 3 0 11 6 18 14 17 5 44
-14 44 -7 0 -23 19 -35 43 -12 23 -22 36 -22 29 0 -7 -4 -10 -10 -7 -5 3 -10
13 -10 21 0 8 5 12 10 9 12 -7 12 2 1 30 -8 19 -8 19 -15 -2 -11 -35 -26 -27
-26 12 0 35 -19 51 -21 18 0 -12 -2 -13 -6 -5 -4 10 -8 10 -19 1 -11 -9 -14
-8 -14 4 0 8 -11 18 -25 21 -14 4 -25 11 -25 17 0 6 -6 7 -12 2 -22 -13 -77
-11 -82 4 -9 22 -29 15 -23 -8 4 -15 1 -19 -11 -17 -11 2 -19 17 -23 38 l-6
35 -2 -32z m0 -66 c-10 -9 -11 -8 -5 6 3 10 9 15 12 12 3 -3 0 -11 -7 -18z
m99 9 c0 -8 -4 -17 -9 -20 -10 -7 -23 19 -14 28 11 11 23 6 23 -8z m62 -18
c-8 -8 -9 -4 -5 13 4 13 8 18 11 10 2 -7 -1 -18 -6 -23z m33 -8 c3 -5 1 -10
-4 -10 -6 0 -11 5 -11 10 0 6 2 10 4 10 3 0 8 -4 11 -10z m-263 -25 c33 -45
-28 -87 -75 -51 -16 13 -16 15 4 40 21 27 56 32 71 11z m202 9 c9 -4 16 -18
16 -34 0 -21 -6 -29 -25 -34 -14 -4 -34 -2 -45 4 -48 26 1 84 54 64z m-84 -18
c0 -3 -4 -8 -10 -11 -5 -3 -10 -1 -10 4 0 6 5 11 10 11 6 0 10 -2 10 -4z m313
-175 c-3 -11 -11 -22 -19 -25 -17 -7 -18 -1 -2 24 16 25 28 26 21 1z m-613
-92 c0 -6 -4 -7 -10 -4 -5 3 -10 11 -10 16 0 6 5 7 10 4 6 -3 10 -11 10 -16z"/>
<path d="M5135 5160 c-3 -5 -1 -10 4 -10 6 0 11 5 11 10 0 6 -2 10 -4 10 -3 0
-8 -4 -11 -10z"/>
<path d="M5985 5161 c-8 -15 3 -31 21 -31 9 0 14 7 12 17 -4 20 -24 28 -33 14z"/>
<path d="M5215 5140 c-10 -16 46 -33 59 -19 8 9 7 10 -6 6 -9 -3 -19 0 -22 9
-6 16 -22 18 -31 4z"/>
<path d="M6206 5095 c-13 -35 19 -60 42 -32 7 8 7 17 -2 30 -16 21 -32 22 -40
2z"/>
<path d="M6470 4980 c-8 -5 -13 -10 -10 -11 3 0 13 -2 22 -4 11 -2 15 2 11 11
-6 16 -4 16 -23 4z"/>
<path d="M6458 4943 c7 -3 16 -2 19 1 4 3 -2 6 -13 5 -11 0 -14 -3 -6 -6z"/>
<path d="M6543 4835 c7 -14 15 -25 19 -25 4 0 2 11 -4 25 -6 14 -15 25 -19 25
-4 0 -2 -11 4 -25z"/>
<path d="M5330 4759 c0 -5 5 -7 10 -4 6 3 10 8 10 11 0 2 -4 4 -10 4 -5 0 -10
-5 -10 -11z"/>
<path d="M4940 4433 c-8 -1 -33 -5 -55 -9 -37 -6 -38 -8 -15 -15 19 -6 14 -8
-25 -8 -27 1 -61 0 -75 0 -24 -2 -24 -2 -6 -16 11 -8 18 -16 15 -17 -40 -25
-62 -32 -104 -34 -47 -3 -49 -2 -30 13 l20 16 -20 -8 c-45 -17 -68 -16 -134 6
-58 18 -73 20 -85 9 -26 -21 -18 -39 22 -48 149 -36 313 -62 401 -64 57 -2 67
-4 45 -10 -16 -5 -44 -6 -61 -3 -25 5 -33 2 -33 -9 0 -12 18 -15 105 -13 82 1
104 4 101 14 -7 16 50 18 60 2 3 -6 19 -9 35 -7 16 3 29 1 29 -4 0 -4 -9 -8
-19 -8 -11 0 -23 -4 -26 -10 -8 -13 -8 -13 54 9 29 10 57 24 61 31 6 10 9 9
14 -1 5 -11 7 -11 12 -1 9 19 21 14 28 -13 4 -14 11 -25 16 -25 12 0 14 46 3
53 -5 2 -2 2 6 0 18 -4 233 36 362 68 50 12 68 35 46 56 -15 16 -21 15 -72 -6
-49 -20 -62 -22 -113 -13 -61 11 -80 8 -41 -6 22 -9 20 -10 -19 -17 -24 -4
-46 -4 -49 -1 -4 3 5 6 19 6 20 0 25 4 21 18 -9 36 -293 87 -335 60 -9 -5 -7
-8 6 -8 11 0 17 -2 15 -5 -3 -2 -41 1 -85 8 -43 7 -86 12 -94 10z m43 -20 c-7
-2 -21 -2 -30 0 -10 3 -4 5 12 5 17 0 24 -2 18 -5z m87 -26 c10 -4 8 -6 -7 -6
-16 -1 -23 5 -23 17 0 10 3 13 8 6 4 -6 14 -14 22 -17z m280 -16 c0 -6 -4 -13
-10 -16 -5 -3 -10 1 -10 9 0 9 5 16 10 16 6 0 10 -4 10 -9z m-40 -11 c0 -5 -4
-10 -10 -10 -5 0 -10 5 -10 10 0 6 5 10 10 10 6 0 10 -4 10 -10z m-323 -116
c-3 -3 -12 -4 -19 -1 -8 3 -5 6 6 6 11 1 17 -2 13 -5z"/>
<path d="M4712 4364 c-14 -16 -5 -18 17 -5 7 5 9 11 5 14 -5 3 -15 -1 -22 -9z"/>
<path d="M5338 4253 c7 -3 16 -2 19 1 4 3 -2 6 -13 5 -11 0 -14 -3 -6 -6z"/>
<path d="M5040 4226 c0 -9 5 -16 10 -16 6 0 10 4 10 9 0 6 -4 13 -10 16 -5 3
-10 -1 -10 -9z"/>
<path d="M4900 4210 c0 -5 9 -10 20 -10 11 0 20 5 20 10 0 6 -9 10 -20 10 -11
0 -20 -4 -20 -10z"/>
<path d="M5180 4209 c0 -5 6 -9 13 -9 8 0 7 -4 -3 -10 -13 -8 -13 -10 1 -10 9
0 22 6 28 14 9 11 6 15 -14 18 -14 3 -25 1 -25 -3z"/>
<path d="M4880 4172 c0 -5 14 -7 30 -4 17 2 37 -1 45 -8 13 -11 14 -10 9 4 -4
11 -18 16 -45 16 -21 0 -39 -4 -39 -8z"/>
<path d="M5210 4150 c0 -5 5 -10 10 -10 6 0 10 5 10 10 0 6 -4 10 -10 10 -5 0
-10 -4 -10 -10z"/>
<path d="M3218 6023 c7 -3 16 -2 19 1 4 3 -2 6 -13 5 -11 0 -14 -3 -6 -6z"/>
<path d="M6867 5343 c-4 -3 -7 -11 -7 -17 0 -6 5 -5 12 2 6 6 9 14 7 17 -3 3
-9 2 -12 -2z"/>
<path d="M6790 5296 c0 -2 7 -9 15 -16 13 -11 14 -10 9 4 -5 14 -24 23 -24 12z"/>
<path d="M6780 5250 c0 -11 4 -20 9 -20 5 0 7 9 4 20 -3 11 -7 20 -9 20 -2 0
-4 -9 -4 -20z"/>
<path d="M6680 5040 c0 -5 5 -10 11 -10 5 0 7 5 4 10 -3 6 -8 10 -11 10 -2 0
-4 -4 -4 -10z"/>
<path d="M7276 5161 c-4 -5 -2 -12 3 -15 5 -4 12 -2 15 3 4 5 2 12 -3 15 -5 4
-12 2 -15 -3z"/>
<path d="M7240 5139 c0 -5 5 -7 10 -4 6 3 10 8 10 11 0 2 -4 4 -10 4 -5 0 -10
-5 -10 -11z"/>
<path d="M7340 5139 c0 -5 5 -7 10 -4 6 3 10 8 10 11 0 2 -4 4 -10 4 -5 0 -10
-5 -10 -11z"/>
<path d="M7367 5133 c-10 -9 -9 -23 1 -23 5 0 9 7 9 15 0 17 -1 18 -10 8z"/>
<path d="M7398 5073 c7 -3 16 -2 19 1 4 3 -2 6 -13 5 -11 0 -14 -3 -6 -6z"/>
<path d="M7366 5032 c-4 -7 -2 -20 3 -29 8 -14 10 -15 11 -3 0 13 1 13 10 0 5
-8 10 -10 10 -4 0 20 -26 48 -34 36z"/>
<path d="M6981 4944 c0 -11 3 -14 6 -6 3 7 2 16 -1 19 -3 4 -6 -2 -5 -13z"/>
<path d="M3033 4725 c0 -8 4 -12 9 -9 4 3 8 9 8 15 0 5 -4 9 -8 9 -5 0 -9 -7
-9 -15z"/>
<path d="M3130 4629 c0 -5 5 -7 10 -4 6 3 10 8 10 11 0 2 -4 4 -10 4 -5 0 -10
-5 -10 -11z"/>
<path d="M3175 4630 c3 -5 8 -10 11 -10 2 0 4 5 4 10 0 6 -5 10 -11 10 -5 0
-7 -4 -4 -10z"/>
<path d="M1247 3435 c3 -8 9 -12 14 -9 12 7 11 11 -5 17 -10 4 -13 1 -9 -8z"/>
<path d="M1300 3410 c0 -5 11 -10 25 -10 14 0 25 5 25 10 0 6 -11 10 -25 10
-14 0 -25 -4 -25 -10z"/>
<path d="M2350 2539 c0 -5 5 -7 10 -4 6 3 10 8 10 11 0 2 -4 4 -10 4 -5 0 -10
-5 -10 -11z"/>
<path d="M2280 2504 c-100 -70 -198 -213 -246 -360 -27 -82 -46 -295 -28 -306
5 -3 10 33 12 81 6 209 97 406 255 553 64 60 68 75 7 32z"/>
<path d="M1950 2475 c-7 -8 -17 -15 -22 -15 -5 0 -29 -13 -53 -30 -24 -16 -46
-30 -50 -30 -3 0 -24 -12 -47 -26 -55 -35 -226 -134 -247 -143 -45 -19 -92
-54 -83 -63 6 -6 39 6 88 33 159 85 284 162 278 170 -3 5 3 6 13 2 10 -3 15
-2 10 2 -4 5 8 15 26 24 41 20 116 74 117 84 0 12 -17 8 -30 -8z m-475 -295
c-3 -5 -12 -10 -18 -10 -7 0 -6 4 3 10 19 12 23 12 15 0z"/>
<path d="M8185 2399 c-4 -6 -5 -12 -2 -15 2 -3 7 2 10 11 7 17 1 20 -8 4z"/>
<path d="M6489 2043 c-13 -16 -12 -17 4 -4 9 7 17 15 17 17 0 8 -8 3 -21 -13z"/>
<path d="M6110 2029 c-122 -16 -271 -45 -325 -63 -5 -2 -13 -4 -17 -5 -20 -3
-96 -37 -123 -54 l-30 -19 35 5 c95 11 556 111 568 123 11 12 11 14 -1 14 -9
0 -21 2 -29 4 -7 2 -42 -1 -78 -5z"/>
<path d="M6411 1969 c-25 -21 -41 -42 -38 -46 4 -3 7 -1 7 5 0 7 4 12 9 12 10
0 74 61 69 66 -2 1 -23 -15 -47 -37z"/>
<path d="M3917 1974 c14 -14 28 -23 31 -20 6 6 -36 46 -49 46 -4 0 3 -12 18
-26z"/>
<path d="M4320 1991 c34 -6 34 -7 10 -15 -24 -8 -23 -8 15 -16 418 -89 471
-98 461 -81 -3 5 -15 7 -26 4 -15 -4 -19 -1 -15 9 11 28 -313 109 -422 107
-49 -1 -53 -3 -23 -8z"/>
<path d="M4277 1979 c7 -7 15 -10 18 -7 3 3 -2 9 -12 12 -14 6 -15 5 -6 -5z"/>
<path d="M3955 1930 c-3 -6 1 -7 9 -4 18 7 21 14 7 14 -6 0 -13 -4 -16 -10z"/>
<path d="M3995 1900 c-3 -6 -1 -10 5 -10 6 0 20 -9 32 -20 12 -11 28 -20 36
-20 8 0 12 -6 9 -14 -4 -10 0 -12 14 -9 11 3 18 6 17 7 -2 1 -26 19 -55 39
-29 20 -55 32 -58 27z"/>
<path d="M6307 1903 c-3 -5 -2 -14 2 -21 5 -9 12 -7 26 8 10 11 13 20 7 20 -7
0 -12 -6 -12 -12 0 -10 -3 -9 -9 1 -5 7 -11 9 -14 4z"/>
<path d="M6253 1865 c-44 -35 -100 -66 -245 -135 -46 -22 -267 -91 -363 -114
-209 -50 -568 -61 -809 -25 -206 30 -406 79 -488 120 -36 18 -68 17 -68 -3 0
-5 10 -6 21 -3 15 5 19 4 15 -4 -4 -6 -4 -11 1 -10 27 5 53 -2 47 -13 -5 -8 0
-9 14 -6 12 4 20 3 18 -1 -6 -9 157 -62 275 -90 258 -61 636 -68 901 -17 131
25 281 66 323 89 11 6 25 12 30 13 6 1 24 8 40 15 17 7 32 13 35 13 26 5 79
39 74 48 -5 7 -2 8 5 4 14 -9 62 8 109 40 23 15 29 24 20 28 -7 3 -3 4 9 2 13
-2 21 1 20 8 -1 6 4 10 11 9 6 -2 11 2 10 9 -2 6 7 14 19 17 14 4 20 10 15 18
-5 9 -16 5 -39 -12z"/>
<path d="M4110 1819 c-13 -8 -12 -11 3 -24 11 -7 26 -11 35 -8 8 4 13 2 10 -3
-4 -5 6 -10 20 -11 l26 -1 -24 19 c-14 10 -34 16 -45 13 -15 -4 -16 -3 -6 4
18 13 -1 23 -19 11z"/>
<path d="M4205 1760 c-3 -5 3 -10 15 -10 12 0 19 -4 15 -9 -9 -16 12 -22 37
-11 22 10 22 10 -5 5 -15 -3 -27 -2 -26 2 5 30 -21 47 -36 23z"/>
<path d="M8329 413 c-13 -16 -12 -17 4 -4 9 7 17 15 17 17 0 8 -8 3 -21 -13z"/>
<path d="M8336 275 c16 -48 17 -68 3 -60 -12 8 -12 6 -1 -8 8 -9 11 -21 7 -26
-3 -7 0 -8 9 -5 18 7 14 51 -9 90 -9 16 -13 20 -9 9z"/>
</g>
</svg>
